# MagicaVoxel @ Ephtracy

# group
o 

# material
mtllib 땅.mtl
usemtl palette

# normals
vn -1 0 0
vn 1 0 0
vn 0 0 1
vn 0 0 -1
vn 0 -1 0
vn 0 1 0

# texcoords
vt 0.537109 0.5
vt 0.748047 0.5

# verts
v -2 0 2
v -2 0 -2
v -2 2.4 2
v -2 2.4 1.7
v -2 2.4 0.5
v -2 2.4 -0.2
v -2 2.4 -1.5
v -2 2.4 -2
v -2 2.5 0.6
v -2 2.5 0.5
v -2 2.5 -0.2
v -2 2.5 -0.3
v -2 2.6 1.7
v -2 2.6 1.4
v -2 2.6 0.9
v -2 2.6 0.6
v -2 2.6 -0.3
v -2 2.6 -0.5
v -2 2.8 1.4
v -2 2.8 1.1
v -2 2.8 1
v -2 2.8 0.9
v -2 2.8 -0.5
v -2 2.8 -0.7
v -2 2.8 -1.1
v -2 2.8 -1.5
v -2 3.1 1.1
v -2 3.1 1
v -2 3.1 -0.7
v -2 3.1 -1.1
v -2 4 2
v -2 4 -2
v 2 0 2
v 2 0 -2
v 2 2.3 0.4
v 2 2.3 -0.6
v 2 2.4 -1.7
v 2 2.4 -2
v 2 2.5 2
v 2 2.5 1.9
v 2 2.5 0.6
v 2 2.5 0.4
v 2 2.5 -0.6
v 2 2.5 -0.8
v 2 2.7 1.5
v 2 2.7 1.1
v 2 2.7 -1.5
v 2 2.7 -1.7
v 2 2.8 -0.8
v 2 2.8 -1.4
v 2 2.9 1.8
v 2 2.9 1.5
v 2 2.9 1.1
v 2 2.9 0.7
v 2 3.1 1.9
v 2 3.1 1.8
v 2 3.1 0.7
v 2 3.1 0.6
v 2 3.1 -1.4
v 2 3.1 -1.5
v 2 4 2
v 2 4 -2
v -2 0 2
v -2 2.4 2
v -2 4 2
v -1.7 2.4 2
v -1.7 2.8 2
v -1 2.8 2
v -1 3.1 2
v -0.8 2.8 2
v -0.8 3.1 2
v -0.6 2.6 2
v -0.6 2.8 2
v 0.3 2.6 2
v 0.3 2.8 2
v 0.4 2.8 2
v 0.4 3.1 2
v 0.6 3 2
v 0.6 3.1 2
v 0.7 2.9 2
v 0.7 3 2
v 1.4 2.9 2
v 1.4 3 2
v 1.5 3 2
v 1.5 3.1 2
v 1.6 2.7 2
v 1.6 3.1 2
v 1.7 2.5 2
v 1.7 2.7 2
v 2 0 2
v 2 2.5 2
v 2 4 2
v -2 0 -2
v -2 2.4 -2
v -2 4 -2
v -1.4 2.4 -2
v -1.4 2.7 -2
v -1.2 2.7 -2
v -1.2 3.1 -2
v -0.9 2.9 -2
v -0.9 3.1 -2
v -0.8 2.7 -2
v -0.8 2.9 -2
v 0.4 2.7 -2
v 0.4 2.9 -2
v 0.6 2.9 -2
v 0.6 3.1 -2
v 0.9 2.9 -2
v 0.9 3.1 -2
v 1.5 2.6 -2
v 1.5 2.9 -2
v 1.9 2.4 -2
v 1.9 2.6 -2
v 2 0 -2
v 2 2.4 -2
v 2 4 -2
v -2 0 2
v 2 0 2
v -2 0 -2
v 2 0 -2
v -2 4 2
v 2 4 2
v -2 4 -2
v 2 4 -2

# faces
f 3/1/1 2/1/1 1/1/1
f 4/1/1 2/1/1 3/1/1
f 5/1/1 2/1/1 4/1/1
f 6/1/1 2/1/1 5/1/1
f 7/1/1 2/1/1 6/1/1
f 8/1/1 2/1/1 7/1/1
f 9/1/1 5/1/1 4/1/1
f 10/2/1 6/2/1 5/2/1
f 10/1/1 5/1/1 9/1/1
f 11/1/1 7/1/1 6/1/1
f 11/2/1 6/2/1 10/2/1
f 12/1/1 7/1/1 11/1/1
f 13/2/1 4/2/1 3/2/1
f 13/1/1 9/1/1 4/1/1
f 14/1/1 9/1/1 13/1/1
f 15/1/1 9/1/1 14/1/1
f 16/2/1 12/2/1 11/2/1
f 16/1/1 9/1/1 15/1/1
f 16/2/1 10/2/1 9/2/1
f 16/2/1 11/2/1 10/2/1
f 17/1/1 7/1/1 12/1/1
f 17/2/1 12/2/1 16/2/1
f 18/1/1 7/1/1 17/1/1
f 19/1/1 15/1/1 14/1/1
f 19/2/1 14/2/1 13/2/1
f 20/1/1 15/1/1 19/1/1
f 21/1/1 15/1/1 20/1/1
f 22/2/1 16/2/1 15/2/1
f 22/1/1 15/1/1 21/1/1
f 22/2/1 18/2/1 17/2/1
f 22/2/1 17/2/1 16/2/1
f 23/1/1 7/1/1 18/1/1
f 23/2/1 18/2/1 22/2/1
f 24/1/1 7/1/1 23/1/1
f 25/1/1 7/1/1 24/1/1
f 26/2/1 8/2/1 7/2/1
f 26/1/1 7/1/1 25/1/1
f 27/1/1 21/1/1 20/1/1
f 27/2/1 20/2/1 19/2/1
f 28/2/1 22/2/1 21/2/1
f 28/1/1 21/1/1 27/1/1
f 28/2/1 23/2/1 22/2/1
f 28/2/1 24/2/1 23/2/1
f 29/1/1 25/1/1 24/1/1
f 29/2/1 24/2/1 28/2/1
f 30/2/1 26/2/1 25/2/1
f 30/1/1 25/1/1 29/1/1
f 31/2/1 27/2/1 19/2/1
f 31/2/1 29/2/1 28/2/1
f 31/2/1 30/2/1 29/2/1
f 31/2/1 19/2/1 13/2/1
f 31/2/1 13/2/1 3/2/1
f 31/2/1 28/2/1 27/2/1
f 32/2/1 8/2/1 26/2/1
f 32/2/1 30/2/1 31/2/1
f 32/2/1 26/2/1 30/2/1
f 33/1/2 34/1/2 35/1/2
f 35/1/2 34/1/2 36/1/2
f 36/1/2 34/1/2 37/1/2
f 37/1/2 34/1/2 38/1/2
f 33/1/2 35/1/2 39/1/2
f 39/1/2 35/1/2 40/1/2
f 40/1/2 35/1/2 41/1/2
f 35/2/2 36/2/2 42/2/2
f 41/1/2 35/1/2 42/1/2
f 36/1/2 37/1/2 43/1/2
f 42/2/2 36/2/2 43/2/2
f 43/1/2 37/1/2 44/1/2
f 40/1/2 41/1/2 45/1/2
f 45/1/2 41/1/2 46/1/2
f 44/1/2 37/1/2 47/1/2
f 37/2/2 38/2/2 48/2/2
f 47/1/2 37/1/2 48/1/2
f 41/2/2 42/2/2 49/2/2
f 44/1/2 47/1/2 49/1/2
f 42/2/2 43/2/2 49/2/2
f 43/2/2 44/2/2 49/2/2
f 49/1/2 47/1/2 50/1/2
f 40/1/2 45/1/2 51/1/2
f 45/2/2 46/2/2 52/2/2
f 51/1/2 45/1/2 52/1/2
f 46/1/2 41/1/2 53/1/2
f 52/2/2 46/2/2 53/2/2
f 53/1/2 41/1/2 54/1/2
f 39/2/2 40/2/2 55/2/2
f 40/1/2 51/1/2 55/1/2
f 51/2/2 52/2/2 56/2/2
f 55/1/2 51/1/2 56/1/2
f 53/2/2 54/2/2 56/2/2
f 52/2/2 53/2/2 56/2/2
f 54/1/2 41/1/2 57/1/2
f 56/2/2 54/2/2 57/2/2
f 49/2/2 50/2/2 58/2/2
f 57/1/2 41/1/2 58/1/2
f 41/2/2 49/2/2 58/2/2
f 50/1/2 47/1/2 59/1/2
f 58/2/2 50/2/2 59/2/2
f 47/2/2 48/2/2 60/2/2
f 59/1/2 47/1/2 60/1/2
f 39/2/2 55/2/2 61/2/2
f 58/2/2 59/2/2 61/2/2
f 59/2/2 60/2/2 61/2/2
f 57/2/2 58/2/2 61/2/2
f 56/2/2 57/2/2 61/2/2
f 55/2/2 56/2/2 61/2/2
f 60/2/2 48/2/2 62/2/2
f 61/2/2 60/2/2 62/2/2
f 48/2/2 38/2/2 62/2/2
f 66/1/3 64/1/3 63/1/3
f 66/2/3 65/2/3 64/2/3
f 67/2/3 65/2/3 66/2/3
f 68/1/3 67/1/3 66/1/3
f 68/2/3 65/2/3 67/2/3
f 69/2/3 65/2/3 68/2/3
f 70/1/3 68/1/3 66/1/3
f 70/1/3 69/1/3 68/1/3
f 71/2/3 65/2/3 69/2/3
f 71/1/3 69/1/3 70/1/3
f 72/1/3 70/1/3 66/1/3
f 73/2/3 71/2/3 70/2/3
f 73/1/3 70/1/3 72/1/3
f 74/1/3 72/1/3 66/1/3
f 74/2/3 73/2/3 72/2/3
f 75/2/3 71/2/3 73/2/3
f 75/2/3 73/2/3 74/2/3
f 76/1/3 75/1/3 74/1/3
f 76/2/3 71/2/3 75/2/3
f 77/2/3 65/2/3 71/2/3
f 77/2/3 71/2/3 76/2/3
f 78/1/3 77/1/3 76/1/3
f 79/2/3 65/2/3 77/2/3
f 79/1/3 77/1/3 78/1/3
f 80/1/3 78/1/3 76/1/3
f 81/2/3 79/2/3 78/2/3
f 81/1/3 78/1/3 80/1/3
f 82/1/3 80/1/3 76/1/3
f 82/2/3 81/2/3 80/2/3
f 83/2/3 79/2/3 81/2/3
f 83/2/3 81/2/3 82/2/3
f 84/1/3 83/1/3 82/1/3
f 84/2/3 79/2/3 83/2/3
f 85/2/3 65/2/3 79/2/3
f 85/2/3 79/2/3 84/2/3
f 86/1/3 76/1/3 74/1/3
f 86/1/3 84/1/3 82/1/3
f 86/1/3 85/1/3 84/1/3
f 86/1/3 82/1/3 76/1/3
f 87/2/3 65/2/3 85/2/3
f 87/1/3 85/1/3 86/1/3
f 88/1/3 86/1/3 74/1/3
f 88/1/3 74/1/3 66/1/3
f 89/2/3 87/2/3 86/2/3
f 89/1/3 86/1/3 88/1/3
f 90/1/3 66/1/3 63/1/3
f 90/1/3 88/1/3 66/1/3
f 91/2/3 89/2/3 88/2/3
f 91/1/3 88/1/3 90/1/3
f 92/2/3 87/2/3 89/2/3
f 92/2/3 89/2/3 91/2/3
f 92/2/3 65/2/3 87/2/3
f 93/1/4 94/1/4 96/1/4
f 94/2/4 95/2/4 96/2/4
f 96/2/4 95/2/4 97/2/4
f 96/1/4 97/1/4 98/1/4
f 97/2/4 95/2/4 98/2/4
f 98/2/4 95/2/4 99/2/4
f 98/1/4 99/1/4 100/1/4
f 99/2/4 95/2/4 101/2/4
f 100/1/4 99/1/4 101/1/4
f 96/1/4 98/1/4 102/1/4
f 98/1/4 100/1/4 102/1/4
f 100/2/4 101/2/4 103/2/4
f 102/1/4 100/1/4 103/1/4
f 96/1/4 102/1/4 104/1/4
f 102/2/4 103/2/4 104/2/4
f 103/2/4 101/2/4 105/2/4
f 104/2/4 103/2/4 105/2/4
f 104/1/4 105/1/4 106/1/4
f 105/2/4 101/2/4 106/2/4
f 101/2/4 95/2/4 107/2/4
f 106/2/4 101/2/4 107/2/4
f 104/1/4 106/1/4 108/1/4
f 106/1/4 107/1/4 108/1/4
f 107/2/4 95/2/4 109/2/4
f 108/1/4 107/1/4 109/1/4
f 104/1/4 108/1/4 110/1/4
f 96/1/4 104/1/4 110/1/4
f 108/2/4 109/2/4 111/2/4
f 110/1/4 108/1/4 111/1/4
f 93/1/4 96/1/4 112/1/4
f 96/1/4 110/1/4 112/1/4
f 110/2/4 111/2/4 113/2/4
f 112/1/4 110/1/4 113/1/4
f 93/1/4 112/1/4 114/1/4
f 112/2/4 113/2/4 115/2/4
f 114/1/4 112/1/4 115/1/4
f 111/2/4 109/2/4 116/2/4
f 115/2/4 113/2/4 116/2/4
f 109/2/4 95/2/4 116/2/4
f 113/2/4 111/2/4 116/2/4
f 119/1/5 118/1/5 117/1/5
f 120/1/5 118/1/5 119/1/5
f 121/2/6 122/2/6 123/2/6
f 123/2/6 122/2/6 124/2/6
