# MagicaVoxel @ Ephtracy

# group
o 

# material
mtllib 페럿.mtl
usemtl palette

# normals
vn -1 0 0
vn 1 0 0
vn 0 0 1
vn 0 0 -1
vn 0 -1 0
vn 0 1 0

# texcoords
vt 0.00195312 0.5
vt 0.533203 0.5
vt 0.845703 0.5

# verts
v -1 1.9 -0.6
v -1 1.9 -1
v -1 2 -0.6
v -1 2 -1
v -0.9 1.9 -0.5
v -0.9 1.9 -0.6
v -0.9 2 -0.5
v -0.9 2 -0.6
v -0.8 1.9 -0.2
v -0.8 1.9 -0.5
v -0.8 2 -0.2
v -0.8 2 -0.5
v -0.6 1.9 0.1
v -0.6 1.9 -0.2
v -0.6 2 0.1
v -0.6 2 -0.2
v -0.5 1.9 0.3
v -0.5 1.9 0.1
v -0.5 2 0.3
v -0.5 2 0.1
v -0.4 1.9 0.5
v -0.4 1.9 0.3
v -0.4 2 0.5
v -0.4 2 0.3
v -0.3 1.9 0.7
v -0.3 1.9 0.5
v -0.3 2 0.7
v -0.3 2 0.5
v -0.2 1.9 1
v -0.2 1.9 0.7
v -0.2 2 1
v -0.2 2 0.7
v 0.2 1.9 1
v 0.2 1.9 0.7
v 0.2 2 1
v 0.2 2 0.7
v 0.3 1.9 0.7
v 0.3 1.9 0.5
v 0.3 2 0.7
v 0.3 2 0.5
v 0.4 1.9 0.5
v 0.4 1.9 0.3
v 0.4 2 0.5
v 0.4 2 0.3
v 0.5 1.9 0.3
v 0.5 1.9 0.1
v 0.5 2 0.3
v 0.5 2 0.1
v 0.6 1.9 0.1
v 0.6 1.9 -0.2
v 0.6 2 0.1
v 0.6 2 -0.2
v 0.8 1.9 -0.2
v 0.8 1.9 -0.5
v 0.8 2 -0.2
v 0.8 2 -0.5
v 0.9 1.9 -0.5
v 0.9 1.9 -0.6
v 0.9 2 -0.5
v 0.9 2 -0.6
v 1 1.9 -0.6
v 1 1.9 -1
v 1 2 -0.6
v 1 2 -1
v -0.2 1.9 1
v -0.2 2 1
v 0.2 1.9 1
v 0.2 2 1
v -0.3 1.9 0.7
v -0.3 2 0.7
v -0.2 1.9 0.7
v -0.2 2 0.7
v 0.2 1.9 0.7
v 0.2 2 0.7
v 0.3 1.9 0.7
v 0.3 2 0.7
v -0.4 1.9 0.5
v -0.4 2 0.5
v -0.3 1.9 0.5
v -0.3 2 0.5
v 0.3 1.9 0.5
v 0.3 2 0.5
v 0.4 1.9 0.5
v 0.4 2 0.5
v -0.5 1.9 0.3
v -0.5 2 0.3
v -0.4 1.9 0.3
v -0.4 2 0.3
v 0.4 1.9 0.3
v 0.4 2 0.3
v 0.5 1.9 0.3
v 0.5 2 0.3
v -0.6 1.9 0.1
v -0.6 2 0.1
v -0.5 1.9 0.1
v -0.5 2 0.1
v 0.5 1.9 0.1
v 0.5 2 0.1
v 0.6 1.9 0.1
v 0.6 2 0.1
v -0.8 1.9 -0.2
v -0.8 2 -0.2
v -0.6 1.9 -0.2
v -0.6 2 -0.2
v 0.6 1.9 -0.2
v 0.6 2 -0.2
v 0.8 1.9 -0.2
v 0.8 2 -0.2
v -0.9 1.9 -0.5
v -0.9 2 -0.5
v -0.8 1.9 -0.5
v -0.8 2 -0.5
v 0.8 1.9 -0.5
v 0.8 2 -0.5
v 0.9 1.9 -0.5
v 0.9 2 -0.5
v -1 1.9 -0.6
v -1 2 -0.6
v -0.9 1.9 -0.6
v -0.9 2 -0.6
v 0.9 1.9 -0.6
v 0.9 2 -0.6
v 1 1.9 -0.6
v 1 2 -0.6
v -1 1.9 -1
v -1 2 -1
v 1 1.9 -1
v 1 2 -1
v -0.2 1.9 1
v 0.2 1.9 1
v -0.1 1.9 0.9
v 0 1.9 0.9
v 0.1 1.9 0.9
v -0.3 1.9 0.7
v -0.2 1.9 0.7
v 0.2 1.9 0.7
v 0.3 1.9 0.7
v -0.2 1.9 0.6
v -0.1 1.9 0.6
v 0.1 1.9 0.6
v 0.2 1.9 0.6
v -0.4 1.9 0.5
v -0.3 1.9 0.5
v 0.3 1.9 0.5
v 0.4 1.9 0.5
v -0.3 1.9 0.4
v -0.2 1.9 0.4
v 0.2 1.9 0.4
v 0.3 1.9 0.4
v -0.5 1.9 0.3
v -0.4 1.9 0.3
v 0.4 1.9 0.3
v 0.5 1.9 0.3
v -0.4 1.9 0.2
v -0.3 1.9 0.2
v 0.3 1.9 0.2
v 0.4 1.9 0.2
v -0.6 1.9 0.1
v -0.5 1.9 0.1
v 0.5 1.9 0.1
v 0.6 1.9 0.1
v -0.5 1.9 0
v -0.4 1.9 0
v 0.4 1.9 0
v 0.5 1.9 0
v -0.8 1.9 -0.2
v -0.6 1.9 -0.2
v 0.6 1.9 -0.2
v 0.8 1.9 -0.2
v -0.7 1.9 -0.3
v -0.6 1.9 -0.3
v -0.5 1.9 -0.3
v 0.5 1.9 -0.3
v 0.6 1.9 -0.3
v 0.7 1.9 -0.3
v -0.9 1.9 -0.5
v -0.8 1.9 -0.5
v 0.8 1.9 -0.5
v 0.9 1.9 -0.5
v -1 1.9 -0.6
v -0.9 1.9 -0.6
v -0.8 1.9 -0.6
v -0.7 1.9 -0.6
v 0.7 1.9 -0.6
v 0.8 1.9 -0.6
v 0.9 1.9 -0.6
v 1 1.9 -0.6
v -0.9 1.9 -0.7
v -0.8 1.9 -0.7
v 0.8 1.9 -0.7
v 0.9 1.9 -0.7
v -0.9 1.9 -0.9
v -0.8 1.9 -0.9
v -0.6 1.9 -0.9
v -0.4 1.9 -0.9
v -0.2 1.9 -0.9
v 0 1.9 -0.9
v 0.2 1.9 -0.9
v 0.4 1.9 -0.9
v 0.6 1.9 -0.9
v 0.8 1.9 -0.9
v 0.9 1.9 -0.9
v -1 1.9 -1
v 1 1.9 -1
v -0.2 2 1
v 0.2 2 1
v -0.1 2 0.9
v 0 2 0.9
v 0.1 2 0.9
v -0.3 2 0.7
v -0.2 2 0.7
v 0.2 2 0.7
v 0.3 2 0.7
v -0.2 2 0.6
v -0.1 2 0.6
v 0.1 2 0.6
v 0.2 2 0.6
v -0.4 2 0.5
v -0.3 2 0.5
v 0.3 2 0.5
v 0.4 2 0.5
v -0.3 2 0.4
v -0.2 2 0.4
v 0.2 2 0.4
v 0.3 2 0.4
v -0.5 2 0.3
v -0.4 2 0.3
v 0.4 2 0.3
v 0.5 2 0.3
v -0.4 2 0.2
v -0.3 2 0.2
v 0.3 2 0.2
v 0.4 2 0.2
v -0.6 2 0.1
v -0.5 2 0.1
v 0.5 2 0.1
v 0.6 2 0.1
v -0.5 2 0
v -0.4 2 0
v 0.4 2 0
v 0.5 2 0
v -0.8 2 -0.2
v -0.6 2 -0.2
v 0.6 2 -0.2
v 0.8 2 -0.2
v -0.7 2 -0.3
v -0.6 2 -0.3
v -0.5 2 -0.3
v 0.5 2 -0.3
v 0.6 2 -0.3
v 0.7 2 -0.3
v -0.9 2 -0.5
v -0.8 2 -0.5
v 0.8 2 -0.5
v 0.9 2 -0.5
v -1 2 -0.6
v -0.9 2 -0.6
v -0.8 2 -0.6
v -0.7 2 -0.6
v 0.7 2 -0.6
v 0.8 2 -0.6
v 0.9 2 -0.6
v 1 2 -0.6
v -0.9 2 -0.7
v -0.8 2 -0.7
v 0.8 2 -0.7
v 0.9 2 -0.7
v -0.9 2 -0.9
v -0.8 2 -0.9
v -0.6 2 -0.9
v -0.4 2 -0.9
v -0.2 2 -0.9
v 0 2 -0.9
v 0.2 2 -0.9
v 0.4 2 -0.9
v 0.6 2 -0.9
v 0.8 2 -0.9
v 0.9 2 -0.9
v -1 2 -1
v 1 2 -1

# faces
f 3/2/1 2/2/1 1/2/1
f 4/2/1 2/2/1 3/2/1
f 7/2/1 6/2/1 5/2/1
f 8/2/1 6/2/1 7/2/1
f 11/2/1 10/2/1 9/2/1
f 12/2/1 10/2/1 11/2/1
f 15/2/1 14/2/1 13/2/1
f 16/2/1 14/2/1 15/2/1
f 19/2/1 18/2/1 17/2/1
f 20/2/1 18/2/1 19/2/1
f 23/2/1 22/2/1 21/2/1
f 24/2/1 22/2/1 23/2/1
f 27/2/1 26/2/1 25/2/1
f 28/2/1 26/2/1 27/2/1
f 31/2/1 30/2/1 29/2/1
f 32/2/1 30/2/1 31/2/1
f 33/2/2 34/2/2 35/2/2
f 35/2/2 34/2/2 36/2/2
f 37/2/2 38/2/2 39/2/2
f 39/2/2 38/2/2 40/2/2
f 41/2/2 42/2/2 43/2/2
f 43/2/2 42/2/2 44/2/2
f 45/2/2 46/2/2 47/2/2
f 47/2/2 46/2/2 48/2/2
f 49/2/2 50/2/2 51/2/2
f 51/2/2 50/2/2 52/2/2
f 53/2/2 54/2/2 55/2/2
f 55/2/2 54/2/2 56/2/2
f 57/2/2 58/2/2 59/2/2
f 59/2/2 58/2/2 60/2/2
f 61/2/2 62/2/2 63/2/2
f 63/2/2 62/2/2 64/2/2
f 67/2/3 66/2/3 65/2/3
f 68/2/3 66/2/3 67/2/3
f 71/2/3 70/2/3 69/2/3
f 72/2/3 70/2/3 71/2/3
f 75/2/3 74/2/3 73/2/3
f 76/2/3 74/2/3 75/2/3
f 79/2/3 78/2/3 77/2/3
f 80/2/3 78/2/3 79/2/3
f 83/2/3 82/2/3 81/2/3
f 84/2/3 82/2/3 83/2/3
f 87/2/3 86/2/3 85/2/3
f 88/2/3 86/2/3 87/2/3
f 91/2/3 90/2/3 89/2/3
f 92/2/3 90/2/3 91/2/3
f 95/2/3 94/2/3 93/2/3
f 96/2/3 94/2/3 95/2/3
f 99/2/3 98/2/3 97/2/3
f 100/2/3 98/2/3 99/2/3
f 103/2/3 102/2/3 101/2/3
f 104/2/3 102/2/3 103/2/3
f 107/2/3 106/2/3 105/2/3
f 108/2/3 106/2/3 107/2/3
f 111/2/3 110/2/3 109/2/3
f 112/2/3 110/2/3 111/2/3
f 115/2/3 114/2/3 113/2/3
f 116/2/3 114/2/3 115/2/3
f 119/2/3 118/2/3 117/2/3
f 120/2/3 118/2/3 119/2/3
f 123/2/3 122/2/3 121/2/3
f 124/2/3 122/2/3 123/2/3
f 125/2/4 126/2/4 127/2/4
f 127/2/4 126/2/4 128/2/4
f 131/2/5 130/2/5 129/2/5
f 132/2/5 130/2/5 131/2/5
f 133/2/5 130/2/5 132/2/5
f 135/2/5 131/2/5 129/2/5
f 136/2/5 130/2/5 133/2/5
f 138/2/5 135/2/5 134/2/5
f 138/2/5 131/2/5 135/2/5
f 139/1/5 132/1/5 131/1/5
f 139/2/5 131/2/5 138/2/5
f 140/2/5 137/2/5 136/2/5
f 140/3/5 133/3/5 132/3/5
f 140/2/5 136/2/5 133/2/5
f 141/2/5 137/2/5 140/2/5
f 143/2/5 138/2/5 134/2/5
f 144/2/5 137/2/5 141/2/5
f 146/2/5 143/2/5 142/2/5
f 146/2/5 138/2/5 143/2/5
f 147/1/5 139/1/5 138/1/5
f 147/2/5 138/2/5 146/2/5
f 148/2/5 145/2/5 144/2/5
f 148/3/5 141/3/5 140/3/5
f 148/2/5 144/2/5 141/2/5
f 149/2/5 145/2/5 148/2/5
f 151/2/5 146/2/5 142/2/5
f 152/2/5 145/2/5 149/2/5
f 154/2/5 151/2/5 150/2/5
f 154/2/5 146/2/5 151/2/5
f 155/3/5 147/3/5 146/3/5
f 155/2/5 146/2/5 154/2/5
f 156/2/5 153/2/5 152/2/5
f 156/1/5 149/1/5 148/1/5
f 156/2/5 152/2/5 149/2/5
f 157/2/5 153/2/5 156/2/5
f 159/2/5 154/2/5 150/2/5
f 160/2/5 153/2/5 157/2/5
f 162/2/5 159/2/5 158/2/5
f 162/2/5 154/2/5 159/2/5
f 163/3/5 155/3/5 154/3/5
f 163/2/5 154/2/5 162/2/5
f 164/2/5 161/2/5 160/2/5
f 164/1/5 157/1/5 156/1/5
f 164/2/5 160/2/5 157/2/5
f 165/2/5 161/2/5 164/2/5
f 167/2/5 162/2/5 158/2/5
f 168/2/5 161/2/5 165/2/5
f 170/2/5 167/2/5 166/2/5
f 171/2/5 162/2/5 167/2/5
f 171/2/5 167/2/5 170/2/5
f 172/1/5 163/1/5 162/1/5
f 172/2/5 162/2/5 171/2/5
f 173/2/5 169/2/5 168/2/5
f 173/3/5 165/3/5 164/3/5
f 173/2/5 168/2/5 165/2/5
f 174/2/5 169/2/5 173/2/5
f 175/2/5 169/2/5 174/2/5
f 177/2/5 170/2/5 166/2/5
f 178/2/5 169/2/5 175/2/5
f 181/2/5 177/2/5 176/2/5
f 182/2/5 170/2/5 177/2/5
f 182/2/5 177/2/5 181/2/5
f 183/3/5 171/3/5 170/3/5
f 183/2/5 170/2/5 182/2/5
f 184/2/5 179/2/5 178/2/5
f 184/1/5 175/1/5 174/1/5
f 184/2/5 178/2/5 175/2/5
f 185/2/5 179/2/5 184/2/5
f 186/2/5 179/2/5 185/2/5
f 188/2/5 182/2/5 181/2/5
f 188/2/5 181/2/5 180/2/5
f 189/3/5 183/3/5 182/3/5
f 189/2/5 182/2/5 188/2/5
f 190/2/5 187/2/5 186/2/5
f 190/2/5 186/2/5 185/2/5
f 190/1/5 185/1/5 184/1/5
f 191/2/5 187/2/5 190/2/5
f 192/2/5 188/2/5 180/2/5
f 192/1/5 189/1/5 188/1/5
f 193/3/5 183/3/5 189/3/5
f 193/1/5 189/1/5 192/1/5
f 194/1/5 172/1/5 171/1/5
f 194/3/5 183/3/5 193/3/5
f 194/3/5 171/3/5 183/3/5
f 195/3/5 155/3/5 163/3/5
f 195/1/5 172/1/5 194/1/5
f 195/1/5 163/1/5 172/1/5
f 196/1/5 139/1/5 147/1/5
f 196/3/5 155/3/5 195/3/5
f 196/3/5 147/3/5 155/3/5
f 197/1/5 132/1/5 139/1/5
f 197/1/5 139/1/5 196/1/5
f 197/3/5 140/3/5 132/3/5
f 197/3/5 148/3/5 140/3/5
f 198/1/5 156/1/5 148/1/5
f 198/3/5 148/3/5 197/3/5
f 198/1/5 164/1/5 156/1/5
f 199/3/5 173/3/5 164/3/5
f 199/1/5 164/1/5 198/1/5
f 199/3/5 174/3/5 173/3/5
f 200/1/5 184/1/5 174/1/5
f 200/3/5 174/3/5 199/3/5
f 200/1/5 190/1/5 184/1/5
f 201/3/5 191/3/5 190/3/5
f 201/1/5 190/1/5 200/1/5
f 202/2/5 187/2/5 191/2/5
f 202/3/5 191/3/5 201/3/5
f 203/2/5 196/2/5 195/2/5
f 203/2/5 195/2/5 194/2/5
f 203/2/5 202/2/5 201/2/5
f 203/2/5 198/2/5 197/2/5
f 203/2/5 200/2/5 199/2/5
f 203/2/5 193/2/5 192/2/5
f 203/2/5 201/2/5 200/2/5
f 203/2/5 194/2/5 193/2/5
f 203/2/5 192/2/5 180/2/5
f 203/2/5 197/2/5 196/2/5
f 203/2/5 199/2/5 198/2/5
f 204/2/5 187/2/5 202/2/5
f 204/2/5 202/2/5 203/2/5
f 205/2/6 206/2/6 207/2/6
f 207/2/6 206/2/6 208/2/6
f 208/2/6 206/2/6 209/2/6
f 205/2/6 207/2/6 211/2/6
f 209/2/6 206/2/6 212/2/6
f 210/2/6 211/2/6 214/2/6
f 211/2/6 207/2/6 214/2/6
f 207/1/6 208/1/6 215/1/6
f 214/2/6 207/2/6 215/2/6
f 212/2/6 213/2/6 216/2/6
f 208/3/6 209/3/6 216/3/6
f 209/2/6 212/2/6 216/2/6
f 216/2/6 213/2/6 217/2/6
f 210/2/6 214/2/6 219/2/6
f 217/2/6 213/2/6 220/2/6
f 218/2/6 219/2/6 222/2/6
f 219/2/6 214/2/6 222/2/6
f 214/1/6 215/1/6 223/1/6
f 222/2/6 214/2/6 223/2/6
f 220/2/6 221/2/6 224/2/6
f 216/3/6 217/3/6 224/3/6
f 217/2/6 220/2/6 224/2/6
f 224/2/6 221/2/6 225/2/6
f 218/2/6 222/2/6 227/2/6
f 225/2/6 221/2/6 228/2/6
f 226/2/6 227/2/6 230/2/6
f 227/2/6 222/2/6 230/2/6
f 222/3/6 223/3/6 231/3/6
f 230/2/6 222/2/6 231/2/6
f 228/2/6 229/2/6 232/2/6
f 224/1/6 225/1/6 232/1/6
f 225/2/6 228/2/6 232/2/6
f 232/2/6 229/2/6 233/2/6
f 226/2/6 230/2/6 235/2/6
f 233/2/6 229/2/6 236/2/6
f 234/2/6 235/2/6 238/2/6
f 235/2/6 230/2/6 238/2/6
f 230/3/6 231/3/6 239/3/6
f 238/2/6 230/2/6 239/2/6
f 236/2/6 237/2/6 240/2/6
f 232/1/6 233/1/6 240/1/6
f 233/2/6 236/2/6 240/2/6
f 240/2/6 237/2/6 241/2/6
f 234/2/6 238/2/6 243/2/6
f 241/2/6 237/2/6 244/2/6
f 242/2/6 243/2/6 246/2/6
f 243/2/6 238/2/6 247/2/6
f 246/2/6 243/2/6 247/2/6
f 238/1/6 239/1/6 248/1/6
f 247/2/6 238/2/6 248/2/6
f 244/2/6 245/2/6 249/2/6
f 240/3/6 241/3/6 249/3/6
f 241/2/6 244/2/6 249/2/6
f 249/2/6 245/2/6 250/2/6
f 250/2/6 245/2/6 251/2/6
f 242/2/6 246/2/6 253/2/6
f 251/2/6 245/2/6 254/2/6
f 252/2/6 253/2/6 257/2/6
f 253/2/6 246/2/6 258/2/6
f 257/2/6 253/2/6 258/2/6
f 246/3/6 247/3/6 259/3/6
f 258/2/6 246/2/6 259/2/6
f 254/2/6 255/2/6 260/2/6
f 250/1/6 251/1/6 260/1/6
f 251/2/6 254/2/6 260/2/6
f 260/2/6 255/2/6 261/2/6
f 261/2/6 255/2/6 262/2/6
f 257/2/6 258/2/6 264/2/6
f 256/2/6 257/2/6 264/2/6
f 258/3/6 259/3/6 265/3/6
f 264/2/6 258/2/6 265/2/6
f 262/2/6 263/2/6 266/2/6
f 261/2/6 262/2/6 266/2/6
f 260/1/6 261/1/6 266/1/6
f 266/2/6 263/2/6 267/2/6
f 256/2/6 264/2/6 268/2/6
f 264/1/6 265/1/6 268/1/6
f 265/3/6 259/3/6 269/3/6
f 268/1/6 265/1/6 269/1/6
f 247/1/6 248/1/6 270/1/6
f 269/3/6 259/3/6 270/3/6
f 259/3/6 247/3/6 270/3/6
f 239/3/6 231/3/6 271/3/6
f 270/1/6 248/1/6 271/1/6
f 248/1/6 239/1/6 271/1/6
f 223/1/6 215/1/6 272/1/6
f 271/3/6 231/3/6 272/3/6
f 231/3/6 223/3/6 272/3/6
f 215/1/6 208/1/6 273/1/6
f 272/1/6 215/1/6 273/1/6
f 208/3/6 216/3/6 273/3/6
f 216/3/6 224/3/6 273/3/6
f 224/1/6 232/1/6 274/1/6
f 273/3/6 224/3/6 274/3/6
f 232/1/6 240/1/6 274/1/6
f 240/3/6 249/3/6 275/3/6
f 274/1/6 240/1/6 275/1/6
f 249/3/6 250/3/6 275/3/6
f 250/1/6 260/1/6 276/1/6
f 275/3/6 250/3/6 276/3/6
f 260/1/6 266/1/6 276/1/6
f 266/3/6 267/3/6 277/3/6
f 276/1/6 266/1/6 277/1/6
f 267/2/6 263/2/6 278/2/6
f 277/3/6 267/3/6 278/3/6
f 271/2/6 272/2/6 279/2/6
f 270/2/6 271/2/6 279/2/6
f 277/2/6 278/2/6 279/2/6
f 273/2/6 274/2/6 279/2/6
f 275/2/6 276/2/6 279/2/6
f 268/2/6 269/2/6 279/2/6
f 276/2/6 277/2/6 279/2/6
f 269/2/6 270/2/6 279/2/6
f 256/2/6 268/2/6 279/2/6
f 272/2/6 273/2/6 279/2/6
f 274/2/6 275/2/6 279/2/6
f 278/2/6 263/2/6 280/2/6
f 279/2/6 278/2/6 280/2/6
