# MagicaVoxel @ Ephtracy

# group
o 

# material
mtllib 미사일.mtl
usemtl palette

# normals
vn -1 0 0
vn 1 0 0
vn 0 0 1
vn 0 0 -1
vn 0 -1 0
vn 0 1 0

# texcoords
vt 0.841797 0.5
vt 0.978516 0.5
vt 0.982422 0.5

# verts
v -1 0.9 0.1
v -1 0.9 -0.1
v -1 1.1 0.1
v -1 1.1 -0.1
v -0.9 0.8 0.2
v -0.9 0.8 -0.2
v -0.9 0.9 0.1
v -0.9 0.9 -0.1
v -0.9 1.1 0.1
v -0.9 1.1 -0.1
v -0.9 1.2 0.2
v -0.9 1.2 -0.2
v -0.8 0.7 0.3
v -0.8 0.7 -0.3
v -0.8 0.8 0.2
v -0.8 0.8 -0.2
v -0.8 1.2 0.2
v -0.8 1.2 -0.2
v -0.8 1.3 0.3
v -0.8 1.3 -0.3
v -0.7 0.6 0.4
v -0.7 0.6 -0.4
v -0.7 0.7 0.3
v -0.7 0.7 -0.3
v -0.7 1.3 0.3
v -0.7 1.3 -0.3
v -0.7 1.4 0.4
v -0.7 1.4 -0.4
v -0.5 0.9 -0.4
v -0.5 0.9 -0.6
v -0.5 1 -0.4
v -0.5 1 -0.6
v -0.4 0.8 0.5
v -0.4 0.8 0.4
v -0.4 0.9 0.6
v -0.4 0.9 0.5
v -0.4 1 0.6
v -0.4 1 0.4
v -0.4 1.4 0.1
v -0.4 1.4 -0.1
v -0.4 1.5 0.1
v -0.4 1.5 -0.1
v -0.2 0.9 0.8
v -0.2 0.9 0.6
v -0.2 1 0.8
v -0.2 1 0.6
v -0.2 1.5 0.1
v -0.2 1.5 -0.1
v -0.2 1.6 0.1
v -0.2 1.6 -0.1
v -0.1 0.9 -0.6
v -0.1 0.9 -0.8
v -0.1 1 -0.6
v -0.1 1 -0.8
v 0.8 0.7 0.3
v 0.8 0.7 -0.4
v 0.8 0.8 0.2
v 0.8 0.8 -0.3
v 0.8 1.2 0.2
v 0.8 1.2 -0.3
v 0.8 1.3 0.3
v 0.8 1.3 -0.4
v 0.9 0.6 0.4
v 0.9 0.6 -0.5
v 0.9 0.7 0.3
v 0.9 0.7 -0.4
v 0.9 1.3 0.3
v 0.9 1.3 -0.4
v 0.9 1.4 0.4
v 0.9 1.4 -0.5
v -0.1 0.8 0.5
v -0.1 0.8 0.4
v -0.1 0.9 0.5
v -0.1 0.9 -0.4
v -0.1 0.9 -0.5
v -0.1 1 0.5
v -0.1 1 0.4
v -0.1 1 -0.4
v -0.1 1 -0.5
v 0 1.4 0.1
v 0 1.4 -0.1
v 0 1.5 0.1
v 0 1.5 -0.1
v 0.4 0.9 0.8
v 0.4 0.9 0.5
v 0.4 1 0.8
v 0.4 1 0.5
v 0.5 1.5 0.1
v 0.5 1.5 -0.1
v 0.5 1.6 0.1
v 0.5 1.6 -0.1
v 0.6 0.9 -0.5
v 0.6 0.9 -0.8
v 0.6 1 -0.5
v 0.6 1 -0.8
v 0.7 0.6 0.4
v 0.7 0.6 -0.4
v 0.7 0.8 0.2
v 0.7 0.8 -0.3
v 0.7 1.2 0.2
v 0.7 1.2 -0.3
v 0.7 1.4 0.4
v 0.7 1.4 -0.4
v 1 0.6 0.4
v 1 0.6 -0.5
v 1 1.4 0.4
v 1 1.4 -0.5
v -0.2 0.9 0.8
v -0.2 1 0.8
v 0.4 0.9 0.8
v 0.4 1 0.8
v -0.4 0.9 0.6
v -0.4 1 0.6
v -0.2 0.9 0.6
v -0.2 1 0.6
v -0.4 0.8 0.5
v -0.4 0.9 0.5
v -0.1 0.8 0.5
v -0.1 0.9 0.5
v -0.7 0.6 0.4
v -0.7 1.4 0.4
v -0.6 0.6 0.4
v -0.6 1.4 0.4
v -0.4 0.8 0.4
v -0.4 1 0.4
v -0.1 0.8 0.4
v -0.1 1 0.4
v 0.7 0.6 0.4
v 0.7 1.4 0.4
v 0.9 0.6 0.4
v 0.9 1.4 0.4
v 1 0.6 0.4
v 1 1.4 0.4
v -0.8 0.7 0.3
v -0.8 1.3 0.3
v -0.7 0.7 0.3
v -0.7 1.3 0.3
v 0.8 0.7 0.3
v 0.8 1.3 0.3
v 0.9 0.7 0.3
v 0.9 1.3 0.3
v -0.9 0.8 0.2
v -0.9 1.2 0.2
v -0.8 0.8 0.2
v -0.8 1.2 0.2
v 0.7 0.8 0.2
v 0.7 1.2 0.2
v 0.8 0.8 0.2
v 0.8 1.2 0.2
v -1 0.9 0.1
v -1 1.1 0.1
v -0.9 0.9 0.1
v -0.9 1.1 0.1
v -0.4 1.4 0.1
v -0.4 1.5 0.1
v -0.2 1.5 0.1
v -0.2 1.6 0.1
v 0 1.4 0.1
v 0 1.5 0.1
v 0.5 1.5 0.1
v 0.5 1.6 0.1
v -0.1 0.9 -0.5
v -0.1 1 -0.5
v 0.6 0.9 -0.5
v 0.6 1 -0.5
v -0.1 0.9 0.5
v -0.1 1 0.5
v 0.4 0.9 0.5
v 0.4 1 0.5
v -1 0.9 -0.1
v -1 1.1 -0.1
v -0.9 0.9 -0.1
v -0.9 1.1 -0.1
v -0.4 1.4 -0.1
v -0.4 1.5 -0.1
v -0.2 1.5 -0.1
v -0.2 1.6 -0.1
v 0 1.4 -0.1
v 0 1.5 -0.1
v 0.5 1.5 -0.1
v 0.5 1.6 -0.1
v -0.9 0.8 -0.2
v -0.9 1.2 -0.2
v -0.8 0.8 -0.2
v -0.8 1.2 -0.2
v -0.8 0.7 -0.3
v -0.8 1.3 -0.3
v -0.7 0.7 -0.3
v -0.7 1.3 -0.3
v 0.7 0.8 -0.3
v 0.7 1.2 -0.3
v 0.8 0.8 -0.3
v 0.8 1.2 -0.3
v -0.7 0.6 -0.4
v -0.7 1.4 -0.4
v -0.6 0.6 -0.4
v -0.6 1.4 -0.4
v -0.5 0.9 -0.4
v -0.5 1 -0.4
v -0.1 0.9 -0.4
v -0.1 1 -0.4
v 0.7 0.6 -0.4
v 0.7 1.4 -0.4
v 0.8 0.7 -0.4
v 0.8 1.3 -0.4
v 0.9 0.7 -0.4
v 0.9 1.3 -0.4
v 0.9 0.6 -0.5
v 0.9 1.4 -0.5
v 1 0.6 -0.5
v 1 1.4 -0.5
v -0.5 0.9 -0.6
v -0.5 1 -0.6
v -0.1 0.9 -0.6
v -0.1 1 -0.6
v -0.1 0.9 -0.8
v -0.1 1 -0.8
v 0.6 0.9 -0.8
v 0.6 1 -0.8
v -0.7 0.6 0.4
v -0.6 0.6 0.4
v 0.7 0.6 0.4
v 0.9 0.6 0.4
v 1 0.6 0.4
v -0.7 0.6 -0.4
v -0.6 0.6 -0.4
v 0.7 0.6 -0.4
v 0.9 0.6 -0.5
v 1 0.6 -0.5
v -0.8 0.7 0.3
v -0.7 0.7 0.3
v 0.8 0.7 0.3
v 0.9 0.7 0.3
v -0.8 0.7 -0.3
v -0.7 0.7 -0.3
v 0.8 0.7 -0.4
v 0.9 0.7 -0.4
v -0.4 0.8 0.5
v -0.1 0.8 0.5
v -0.4 0.8 0.4
v -0.1 0.8 0.4
v -0.9 0.8 0.2
v -0.8 0.8 0.2
v 0.7 0.8 0.2
v 0.8 0.8 0.2
v -0.9 0.8 -0.2
v -0.8 0.8 -0.2
v 0.7 0.8 -0.3
v 0.8 0.8 -0.3
v -0.2 0.9 0.8
v 0.4 0.9 0.8
v -0.4 0.9 0.6
v -0.2 0.9 0.6
v -0.4 0.9 0.5
v -0.1 0.9 0.5
v 0.4 0.9 0.5
v -1 0.9 0.1
v -0.9 0.9 0.1
v -1 0.9 -0.1
v -0.9 0.9 -0.1
v -0.5 0.9 -0.4
v -0.1 0.9 -0.4
v -0.1 0.9 -0.5
v 0.6 0.9 -0.5
v -0.5 0.9 -0.6
v -0.1 0.9 -0.6
v -0.1 0.9 -0.8
v 0.6 0.9 -0.8
v 0 1.5 0.1
v 0.5 1.5 0.1
v 0 1.5 -0.1
v 0.5 1.5 -0.1
v -0.2 1 0.8
v 0.4 1 0.8
v -0.4 1 0.6
v -0.2 1 0.6
v -0.1 1 0.5
v 0.4 1 0.5
v -0.4 1 0.4
v -0.1 1 0.4
v -0.5 1 -0.4
v -0.1 1 -0.4
v -0.1 1 -0.5
v 0.6 1 -0.5
v -0.5 1 -0.6
v -0.1 1 -0.6
v -0.1 1 -0.8
v 0.6 1 -0.8
v -1 1.1 0.1
v -0.9 1.1 0.1
v -1 1.1 -0.1
v -0.9 1.1 -0.1
v -0.9 1.2 0.2
v -0.8 1.2 0.2
v 0.7 1.2 0.2
v 0.8 1.2 0.2
v -0.9 1.2 -0.2
v -0.8 1.2 -0.2
v 0.7 1.2 -0.3
v 0.8 1.2 -0.3
v -0.8 1.3 0.3
v -0.7 1.3 0.3
v 0.8 1.3 0.3
v 0.9 1.3 0.3
v -0.8 1.3 -0.3
v -0.7 1.3 -0.3
v 0.8 1.3 -0.4
v 0.9 1.3 -0.4
v -0.7 1.4 0.4
v -0.6 1.4 0.4
v 0.7 1.4 0.4
v 0.9 1.4 0.4
v 1 1.4 0.4
v -0.4 1.4 0.1
v 0 1.4 0.1
v -0.4 1.4 -0.1
v 0 1.4 -0.1
v -0.7 1.4 -0.4
v -0.6 1.4 -0.4
v 0.7 1.4 -0.4
v 0.9 1.4 -0.5
v 1 1.4 -0.5
v -0.4 1.5 0.1
v -0.2 1.5 0.1
v -0.4 1.5 -0.1
v -0.2 1.5 -0.1
v -0.2 1.6 0.1
v 0.5 1.6 0.1
v -0.2 1.6 -0.1
v 0.5 1.6 -0.1

# faces
f 3/1/1 2/1/1 1/1/1
f 4/1/1 2/1/1 3/1/1
f 7/1/1 6/1/1 5/1/1
f 8/1/1 6/1/1 7/1/1
f 9/1/1 7/1/1 5/1/1
f 10/1/1 6/1/1 8/1/1
f 11/1/1 9/1/1 5/1/1
f 11/1/1 10/1/1 9/1/1
f 12/1/1 6/1/1 10/1/1
f 12/1/1 10/1/1 11/1/1
f 15/1/1 14/1/1 13/1/1
f 16/1/1 14/1/1 15/1/1
f 17/1/1 15/1/1 13/1/1
f 18/1/1 14/1/1 16/1/1
f 19/1/1 17/1/1 13/1/1
f 19/1/1 18/1/1 17/1/1
f 20/1/1 14/1/1 18/1/1
f 20/1/1 18/1/1 19/1/1
f 23/1/1 22/1/1 21/1/1
f 24/1/1 22/1/1 23/1/1
f 25/1/1 23/1/1 21/1/1
f 26/1/1 22/1/1 24/1/1
f 27/1/1 25/1/1 21/1/1
f 27/1/1 26/1/1 25/1/1
f 28/1/1 22/1/1 26/1/1
f 28/1/1 26/1/1 27/1/1
f 31/3/1 30/3/1 29/3/1
f 32/3/1 30/3/1 31/3/1
f 36/3/1 34/3/1 33/3/1
f 37/3/1 36/3/1 35/3/1
f 38/3/1 34/3/1 36/3/1
f 38/3/1 36/3/1 37/3/1
f 41/3/1 40/3/1 39/3/1
f 42/3/1 40/3/1 41/3/1
f 45/3/1 44/3/1 43/3/1
f 46/3/1 44/3/1 45/3/1
f 49/3/1 48/3/1 47/3/1
f 50/3/1 48/3/1 49/3/1
f 53/3/1 52/3/1 51/3/1
f 54/3/1 52/3/1 53/3/1
f 57/2/1 56/2/1 55/2/1
f 58/2/1 56/2/1 57/2/1
f 59/2/1 57/2/1 55/2/1
f 60/2/1 56/2/1 58/2/1
f 61/2/1 59/2/1 55/2/1
f 61/2/1 60/2/1 59/2/1
f 62/2/1 56/2/1 60/2/1
f 62/2/1 60/2/1 61/2/1
f 65/2/1 64/2/1 63/2/1
f 66/2/1 64/2/1 65/2/1
f 67/2/1 65/2/1 63/2/1
f 68/2/1 64/2/1 66/2/1
f 69/2/1 67/2/1 63/2/1
f 69/2/1 68/2/1 67/2/1
f 70/2/1 64/2/1 68/2/1
f 70/2/1 68/2/1 69/2/1
f 71/3/2 72/3/2 73/3/2
f 73/3/2 72/3/2 76/3/2
f 76/3/2 72/3/2 77/3/2
f 74/3/2 75/3/2 78/3/2
f 78/3/2 75/3/2 79/3/2
f 80/3/2 81/3/2 82/3/2
f 82/3/2 81/3/2 83/3/2
f 84/3/2 85/3/2 86/3/2
f 86/3/2 85/3/2 87/3/2
f 88/3/2 89/3/2 90/3/2
f 90/3/2 89/3/2 91/3/2
f 92/3/2 93/3/2 94/3/2
f 94/3/2 93/3/2 95/3/2
f 96/3/2 97/3/2 98/3/2
f 98/3/2 97/3/2 99/3/2
f 96/3/2 98/3/2 100/3/2
f 99/3/2 97/3/2 101/3/2
f 96/3/2 100/3/2 102/3/2
f 100/3/2 101/3/2 102/3/2
f 101/3/2 97/3/2 103/3/2
f 102/3/2 101/3/2 103/3/2
f 104/2/2 105/2/2 106/2/2
f 106/2/2 105/2/2 107/2/2
f 110/3/3 109/3/3 108/3/3
f 111/3/3 109/3/3 110/3/3
f 114/3/3 113/3/3 112/3/3
f 115/3/3 113/3/3 114/3/3
f 118/3/3 117/3/3 116/3/3
f 119/3/3 117/3/3 118/3/3
f 122/1/3 121/1/3 120/1/3
f 123/1/3 121/1/3 122/1/3
f 124/3/3 123/3/3 122/3/3
f 125/3/3 123/3/3 124/3/3
f 126/3/3 124/3/3 122/3/3
f 127/3/3 123/3/3 125/3/3
f 128/3/3 126/3/3 122/3/3
f 128/3/3 127/3/3 126/3/3
f 129/3/3 123/3/3 127/3/3
f 129/3/3 127/3/3 128/3/3
f 132/2/3 131/2/3 130/2/3
f 133/2/3 131/2/3 132/2/3
f 136/1/3 135/1/3 134/1/3
f 137/1/3 135/1/3 136/1/3
f 140/2/3 139/2/3 138/2/3
f 141/2/3 139/2/3 140/2/3
f 144/1/3 143/1/3 142/1/3
f 145/1/3 143/1/3 144/1/3
f 148/2/3 147/2/3 146/2/3
f 149/2/3 147/2/3 148/2/3
f 152/1/3 151/1/3 150/1/3
f 153/1/3 151/1/3 152/1/3
f 156/3/3 155/3/3 154/3/3
f 158/3/3 156/3/3 154/3/3
f 158/3/3 157/3/3 156/3/3
f 159/3/3 157/3/3 158/3/3
f 160/3/3 157/3/3 159/3/3
f 161/3/3 157/3/3 160/3/3
f 164/3/3 163/3/3 162/3/3
f 165/3/3 163/3/3 164/3/3
f 166/3/4 167/3/4 168/3/4
f 168/3/4 167/3/4 169/3/4
f 170/1/4 171/1/4 172/1/4
f 172/1/4 171/1/4 173/1/4
f 174/3/4 175/3/4 176/3/4
f 174/3/4 176/3/4 178/3/4
f 176/3/4 177/3/4 178/3/4
f 178/3/4 177/3/4 179/3/4
f 179/3/4 177/3/4 180/3/4
f 180/3/4 177/3/4 181/3/4
f 182/1/4 183/1/4 184/1/4
f 184/1/4 183/1/4 185/1/4
f 186/1/4 187/1/4 188/1/4
f 188/1/4 187/1/4 189/1/4
f 190/2/4 191/2/4 192/2/4
f 192/2/4 191/2/4 193/2/4
f 194/1/4 195/1/4 196/1/4
f 196/1/4 195/1/4 197/1/4
f 196/3/4 197/3/4 198/3/4
f 198/3/4 197/3/4 199/3/4
f 196/3/4 198/3/4 200/3/4
f 199/3/4 197/3/4 201/3/4
f 196/3/4 200/3/4 202/3/4
f 200/3/4 201/3/4 202/3/4
f 201/3/4 197/3/4 203/3/4
f 202/3/4 201/3/4 203/3/4
f 204/2/4 205/2/4 206/2/4
f 206/2/4 205/2/4 207/2/4
f 208/2/4 209/2/4 210/2/4
f 210/2/4 209/2/4 211/2/4
f 212/3/4 213/3/4 214/3/4
f 214/3/4 213/3/4 215/3/4
f 216/3/4 217/3/4 218/3/4
f 218/3/4 217/3/4 219/3/4
f 225/1/5 221/1/5 220/1/5
f 226/3/5 222/3/5 221/3/5
f 226/1/5 221/1/5 225/1/5
f 227/3/5 222/3/5 226/3/5
f 228/2/5 224/2/5 223/2/5
f 229/2/5 224/2/5 228/2/5
f 234/1/5 231/1/5 230/1/5
f 235/1/5 231/1/5 234/1/5
f 236/2/5 233/2/5 232/2/5
f 237/2/5 233/2/5 236/2/5
f 240/3/5 239/3/5 238/3/5
f 241/3/5 239/3/5 240/3/5
f 246/1/5 243/1/5 242/1/5
f 247/1/5 243/1/5 246/1/5
f 248/2/5 245/2/5 244/2/5
f 249/2/5 245/2/5 248/2/5
f 253/3/5 251/3/5 250/3/5
f 254/3/5 253/3/5 252/3/5
f 255/3/5 251/3/5 253/3/5
f 255/3/5 253/3/5 254/3/5
f 256/3/5 251/3/5 255/3/5
f 259/1/5 258/1/5 257/1/5
f 260/1/5 258/1/5 259/1/5
f 263/3/5 262/3/5 261/3/5
f 265/3/5 263/3/5 261/3/5
f 265/3/5 264/3/5 263/3/5
f 266/3/5 264/3/5 265/3/5
f 267/3/5 264/3/5 266/3/5
f 268/3/5 264/3/5 267/3/5
f 271/3/5 270/3/5 269/3/5
f 272/3/5 270/3/5 271/3/5
f 273/3/6 274/3/6 276/3/6
f 276/3/6 274/3/6 277/3/6
f 275/3/6 276/3/6 277/3/6
f 277/3/6 274/3/6 278/3/6
f 275/3/6 277/3/6 279/3/6
f 279/3/6 277/3/6 280/3/6
f 281/3/6 282/3/6 283/3/6
f 281/3/6 283/3/6 285/3/6
f 283/3/6 284/3/6 285/3/6
f 285/3/6 284/3/6 286/3/6
f 286/3/6 284/3/6 287/3/6
f 287/3/6 284/3/6 288/3/6
f 289/1/6 290/1/6 291/1/6
f 291/1/6 290/1/6 292/1/6
f 293/1/6 294/1/6 297/1/6
f 297/1/6 294/1/6 298/1/6
f 295/2/6 296/2/6 299/2/6
f 299/2/6 296/2/6 300/2/6
f 301/1/6 302/1/6 305/1/6
f 305/1/6 302/1/6 306/1/6
f 303/2/6 304/2/6 307/2/6
f 307/2/6 304/2/6 308/2/6
f 310/3/6 311/3/6 314/3/6
f 314/3/6 311/3/6 315/3/6
f 310/3/6 314/3/6 316/3/6
f 315/3/6 311/3/6 317/3/6
f 309/1/6 310/1/6 318/1/6
f 316/3/6 317/3/6 319/3/6
f 318/1/6 310/1/6 319/1/6
f 310/3/6 316/3/6 319/3/6
f 317/3/6 311/3/6 320/3/6
f 319/3/6 317/3/6 320/3/6
f 312/2/6 313/2/6 321/2/6
f 321/2/6 313/2/6 322/2/6
f 323/3/6 324/3/6 325/3/6
f 325/3/6 324/3/6 326/3/6
f 327/3/6 328/3/6 329/3/6
f 329/3/6 328/3/6 330/3/6
